<svg width="24" height="24" viewBox="0 0 24 24" fill="none" xmlns="http://www.w3.org/2000/svg">
<g clip-path="url(#clip0_1_2965)">
<path d="M17.4206 7.74219H15.8722C15.2319 7.74219 14.7109 8.26318 14.7109 8.90349V15.0971C14.7109 15.7374 15.2319 16.2584 15.8722 16.2584H17.4206C18.0609 16.2584 18.5819 15.7374 18.5819 15.0971V8.90349C18.5819 8.26318 18.0609 7.74219 17.4206 7.74219ZM15.8722 8.51639H17.4206C17.6341 8.51639 17.8077 8.69007 17.8077 8.90349V12.2265C16.875 11.9616 16.0493 11.3788 15.4851 10.578V8.90344C15.4852 8.69007 15.6588 8.51639 15.8722 8.51639ZM17.4206 15.4842H15.8722C15.6588 15.4842 15.4851 15.3105 15.4851 15.0971V11.7591C16.1309 12.3778 16.934 12.819 17.8077 13.0263V15.0971C17.8077 15.3105 17.6341 15.4842 17.4206 15.4842Z" fill="#414141"/>
<path d="M13.1632 7.5119L13.1319 7.50073L10.0603 6.96875H6.13065L1.94344 10.6326C1.69139 10.8531 1.54688 11.1717 1.54688 11.5066V21.2913C1.54688 21.9316 2.06782 22.4526 2.70818 22.4526H12.7727C13.413 22.4526 13.934 21.9316 13.934 21.2913V8.60554C13.934 8.11602 13.6242 7.67653 13.1632 7.5119ZM13.1597 21.2913C13.1597 21.5047 12.9861 21.6784 12.7726 21.6784H2.70813C2.49471 21.6784 2.32103 21.5047 2.32103 21.2913V11.5066C2.32103 11.3949 2.36922 11.2887 2.45322 11.2152L6.42152 7.74295H9.99376L12.9285 8.25121C13.0679 8.31255 13.1597 8.45161 13.1597 8.60554V21.2913H13.1597Z" fill="#414141"/>
<path d="M5.41835 17.8055C5.63214 17.8055 5.80545 17.6321 5.80545 17.4184C5.80545 17.2046 5.63214 17.0312 5.41835 17.0312C5.20456 17.0312 5.03125 17.2046 5.03125 17.4184C5.03125 17.6321 5.20456 17.8055 5.41835 17.8055Z" fill="#414141"/>
<path d="M10.0668 17.8055C10.2806 17.8055 10.4539 17.6321 10.4539 17.4184C10.4539 17.2046 10.2806 17.0312 10.0668 17.0312C9.853 17.0312 9.67969 17.2046 9.67969 17.4184C9.67969 17.6321 9.853 17.8055 10.0668 17.8055Z" fill="#414141"/>
<path d="M11.2228 13.939H10.5967L10.5304 13.4079C10.4579 12.8279 9.96246 12.3906 9.37801 12.3906H6.09972C5.51531 12.3906 5.01993 12.8279 4.94742 13.4079L4.88105 13.939H4.25505C3.6147 13.939 3.09375 14.46 3.09375 15.1003V15.4874C3.09375 15.8566 3.35369 16.1658 3.70004 16.2428C3.56098 16.4749 3.48085 16.7461 3.48085 17.0358V18.1971C3.48085 18.7017 3.80453 19.132 4.25505 19.2918V20.1326C4.25505 20.5595 4.60237 20.9068 5.02925 20.9068H5.80345C6.23034 20.9068 6.57765 20.5595 6.57765 20.1326V19.3584H8.90021V20.1326C8.90021 20.5595 9.24753 20.9068 9.67441 20.9068H10.4486C10.8755 20.9068 11.2228 20.5595 11.2228 20.1326V19.2918C11.6733 19.132 11.997 18.7017 11.997 18.1971V17.0358C11.997 16.7461 11.9169 16.4749 11.7778 16.2428C12.1242 16.1658 12.3841 15.8566 12.3841 15.4874V15.1003C12.3841 14.46 11.8632 13.939 11.2228 13.939ZM11.2228 14.7132C11.4362 14.7132 11.6099 14.8869 11.6099 15.1003V15.4874H10.7903L10.6935 14.7132H11.2228ZM6.09981 13.1648H9.3781C9.57292 13.1648 9.73806 13.3106 9.7622 13.5039L10.0101 15.4874H5.46782L5.71576 13.5039C5.73985 13.3106 5.90499 13.1648 6.09981 13.1648ZM3.86795 15.1003C3.86795 14.8869 4.04163 14.7132 4.25505 14.7132H4.78431L4.68752 15.4874H3.86795V15.1003ZM5.80345 20.1325H5.02925V19.3583H5.80345V20.1325ZM9.67441 20.1325V19.3583H10.4486V20.1325H9.67441ZM11.2228 18.1971C11.2228 18.4105 11.0491 18.5842 10.8357 18.5842H4.64215C4.42873 18.5842 4.25505 18.4105 4.25505 18.1971V17.0358C4.25505 16.6089 4.60237 16.2616 5.02925 16.2616H10.4486C10.8755 16.2616 11.2228 16.6089 11.2228 17.0358L11.2228 18.1971Z" fill="#414141"/>
<path d="M6.96875 8.51562H10.8397V9.28983H6.96875V8.51562Z" fill="#414141"/>
<path d="M6.96875 10.0625H12.3881V10.8367H6.96875V10.0625Z" fill="#414141"/>
<path d="M23.1145 5.17243L19.8931 0.486795C19.6835 0.181988 19.3376 0 18.9677 0C18.5979 0 18.252 0.181988 18.0423 0.486795L14.831 5.15776L13.1613 4.73156V3.87096H13.5484C14.1887 3.87096 14.7097 3.34996 14.7097 2.70966V1.1613C14.7097 0.520996 14.1887 0 13.5484 0H5.80646C5.16616 0 4.64516 0.520996 4.64516 1.1613V2.7097C4.64516 3.35001 5.16616 3.87101 5.80646 3.87101H6.19356V4.85664L0.925358 9.46631C0.337253 9.98084 0 10.7241 0 11.5055V21.2903C0 22.7844 1.21558 24 2.70966 24H17.4193C18.9134 24 20.129 22.7844 20.129 21.2903V13.0252C21.162 12.7805 22.0996 12.2106 22.7955 11.3958C23.5722 10.4866 24 9.32641 24 8.12902V8.02332C24 7.0009 23.6938 6.01504 23.1145 5.17243ZM5.41936 2.70966V1.1613C5.41936 0.947882 5.59304 0.774201 5.80646 0.774201H13.5484C13.7618 0.774201 13.9355 0.947882 13.9355 1.1613V2.7097C13.9355 2.92312 13.7618 3.0968 13.5484 3.0968H5.80646C5.593 3.09676 5.41936 2.92312 5.41936 2.70966ZM12.3871 3.87096V4.64516H6.96772V3.87096H12.3871ZM19.3548 21.2903C19.3548 22.3575 18.4866 23.2258 17.4193 23.2258H2.70966C1.64242 23.2258 0.774155 22.3575 0.774155 21.2903V11.5055C0.774155 10.9474 1.01508 10.4165 1.43514 10.0489L6.72605 5.41936H12.7255L18.0865 6.78767C18.8458 7.06653 19.3548 7.7944 19.3548 8.60455V21.2903H19.3548ZM23.2258 8.12902C23.2258 10.0611 21.9482 11.7163 20.129 12.2264V8.60446C20.129 7.46227 19.4063 6.4368 18.3307 6.0526L18.3137 6.04656L15.6303 5.36162L18.6803 0.925266C18.7454 0.830648 18.8529 0.774155 18.9677 0.774155C19.0826 0.774155 19.1901 0.830648 19.2551 0.925358L22.4766 5.611C22.9667 6.32395 23.2258 7.15811 23.2258 8.02328V8.12902Z" fill="#414141"/>
<path d="M20.4583 4.03906L19.8203 4.47763L21.2028 6.48855C21.5147 6.9422 21.6796 7.47307 21.6796 8.02365V8.1293C21.6796 8.95409 21.3091 9.7246 20.6631 10.2432L21.1478 10.8469C21.9778 10.1806 22.4538 9.19003 22.4538 8.1293V8.02361C22.4538 7.31569 22.2418 6.63319 21.8407 6.04989L20.4583 4.03906Z" fill="#414141"/>
</g>
<defs>
<clipPath id="clip0_1_2965">
<rect width="24" height="24" fill="white"/>
</clipPath>
</defs>
</svg>
