<svg width="60" height="54" viewBox="0 0 60 54" fill="none" xmlns="http://www.w3.org/2000/svg">
<g filter="url(#filter0_d_1_2316)">
<path d="M30.3107 22.3333H39.3333C39.5227 22.3333 39.6809 22.3973 39.808 22.5253C39.9351 22.6533 39.9991 22.8119 40 23.0013C40.0009 23.1906 39.9369 23.3488 39.808 23.4759C39.6791 23.603 39.5209 23.6666 39.3333 23.6666H30.3107L34.5373 27.9546C34.6627 28.079 34.7222 28.2301 34.716 28.4079C34.7098 28.5857 34.6418 28.7417 34.512 28.8759C34.3938 28.9977 34.2427 29.0586 34.0587 29.0586C33.8747 29.0586 33.72 28.9964 33.5947 28.8719L28.5027 23.7546C28.2867 23.5386 28.1787 23.287 28.1787 22.9999C28.1787 22.7128 28.2867 22.4613 28.5027 22.2453L33.62 17.1279C33.7444 17.0035 33.8964 16.9444 34.076 16.9506C34.2555 16.9568 34.4111 17.0261 34.5427 17.1586C34.6644 17.2804 34.7253 17.4275 34.7253 17.5999C34.7253 17.7724 34.6631 17.9213 34.5387 18.0466L30.3107 22.3333ZM26.1027 17.3066C26.2911 17.3066 26.4493 17.371 26.5773 17.4999C26.7053 17.6288 26.7693 17.787 26.7693 17.9746C26.7693 18.1622 26.7053 18.3204 26.5773 18.4493C26.4493 18.5781 26.2911 18.6421 26.1027 18.6413H16.6667C16.4773 18.6413 16.3191 18.5773 16.192 18.4493C16.064 18.3213 16 18.1626 16 17.9733C16 17.7839 16.064 17.6257 16.192 17.4986C16.32 17.3715 16.4782 17.3079 16.6667 17.3079L26.1027 17.3066ZM26.1027 27.3599C26.2911 27.3599 26.4493 27.4235 26.5773 27.5506C26.7053 27.6786 26.7693 27.8373 26.7693 28.0266C26.7693 28.2159 26.7053 28.3741 26.5773 28.5013C26.4493 28.6284 26.2911 28.6919 26.1027 28.6919H16.6667C16.4773 28.6919 16.3191 28.6279 16.192 28.4999C16.0649 28.3719 16.0009 28.2141 16 28.0266C15.9991 27.839 16.0631 27.6804 16.192 27.5506C16.3209 27.4208 16.4791 27.3573 16.6667 27.3599H26.1027ZM22.1027 22.3333C22.2911 22.3333 22.4493 22.3973 22.5773 22.5253C22.7053 22.6533 22.7693 22.8119 22.7693 23.0013C22.7693 23.1906 22.7053 23.3488 22.5773 23.4759C22.4493 23.603 22.2911 23.6666 22.1027 23.6666H16.6667C16.4773 23.6666 16.3191 23.6026 16.192 23.4746C16.0649 23.3466 16.0009 23.1879 16 22.9986C15.9991 22.8093 16.0631 22.651 16.192 22.5239C16.3209 22.3968 16.4791 22.3333 16.6667 22.3333H22.1027Z" fill="#6D48FF"/>
</g>
<defs>
<filter id="filter0_d_1_2316" x="-8" y="-9" width="72" height="72" filterUnits="userSpaceOnUse" color-interpolation-filters="sRGB">
<feFlood flood-opacity="0" result="BackgroundImageFix"/>
<feColorMatrix in="SourceAlpha" type="matrix" values="0 0 0 0 0 0 0 0 0 0 0 0 0 0 0 0 0 0 127 0" result="hardAlpha"/>
<feOffset dy="4"/>
<feGaussianBlur stdDeviation="10"/>
<feComposite in2="hardAlpha" operator="out"/>
<feColorMatrix type="matrix" values="0 0 0 0 0 0 0 0 0 0 0 0 0 0 0 0 0 0 0.25 0"/>
<feBlend mode="normal" in2="BackgroundImageFix" result="effect1_dropShadow_1_2316"/>
<feBlend mode="normal" in="SourceGraphic" in2="effect1_dropShadow_1_2316" result="shape"/>
</filter>
</defs>
</svg>
