<svg width="24" height="24" viewBox="0 0 24 24" fill="none" xmlns="http://www.w3.org/2000/svg">
<g clip-path="url(#clip0_1_2926)">
<path d="M18.8748 18.04L16.981 18.49C16.7823 18.52 16.5835 18.5425 16.3998 18.5425C15.796 18.5425 15.3085 18.3438 15.2148 17.74C15.1323 17.2488 15.496 16.7838 16.0285 16.6975L18.0198 16.375C18.4173 16.8625 18.7098 17.4325 18.8748 18.04Z" fill="white"/>
<path d="M15.4431 14.67C15.5893 15.0037 15.3418 15.375 14.9818 15.375H7.51181C7.15181 15.375 6.90431 15.0037 7.05056 14.67L7.43681 13.7662C7.69931 13.1512 8.30681 12.75 8.97806 12.75H13.5156C14.1868 12.75 14.7943 13.1512 15.0568 13.7662L15.4431 14.67Z" fill="white"/>
<path d="M13.4914 17.88C13.4914 17.9738 13.4689 18.0713 13.4239 18.1613C13.2402 18.5213 12.8727 18.75 12.4677 18.75H10.0377C9.63266 18.75 9.26516 18.5213 9.08141 18.1613C8.87516 17.7413 9.17891 17.25 9.64391 17.25H12.8614C13.2252 17.25 13.4914 17.55 13.4914 17.88Z" fill="white"/>
<path d="M6.47125 16.6975C7.00375 16.7838 7.3675 17.2488 7.285 17.74C7.19125 18.3438 6.70375 18.5425 6.1 18.5425C5.91625 18.5425 5.7175 18.52 5.51875 18.49L3.625 18.04C3.6925 17.7925 3.7825 17.5488 3.89125 17.3163C4.04875 16.9788 4.24375 16.6637 4.48 16.375L6.47125 16.6975Z" fill="white"/>
<path d="M6.375 21.6803V22.1266C6.375 22.9553 5.70375 23.6266 4.875 23.6266C4.33875 23.6266 3.86625 23.3453 3.60375 22.9178C3.4575 22.6891 3.375 22.4153 3.375 22.1266V20.7578C3.57375 21.1666 3.97125 21.4628 4.4625 21.5078L6.375 21.6803Z" fill="white"/>
<path d="M19.125 20.7578V22.1266C19.125 22.4153 19.0425 22.6891 18.8962 22.9178C18.6337 23.3453 18.1612 23.6266 17.625 23.6266C16.7962 23.6266 16.125 22.9553 16.125 22.1266V21.6803L18.0375 21.5078C18.5287 21.4628 18.9262 21.1666 19.125 20.7578Z" fill="white"/>
<path d="M8.26322 15.75H15.7302C16.0272 15.75 16.3017 15.6019 16.4652 15.354C16.6287 15.1061 16.6565 14.7953 16.5395 14.5226L16.1528 13.62C15.8285 12.8636 15.0871 12.375 14.264 12.375H9.72947C8.90672 12.375 8.16535 12.8636 7.84097 13.62L7.45435 14.5226C7.33735 14.7956 7.3651 15.1065 7.5286 15.354C7.69172 15.6019 7.96622 15.75 8.26322 15.75ZM8.14322 14.8181L8.52985 13.9155C8.7361 13.4355 9.20672 13.125 9.72947 13.125H14.2643C14.7871 13.125 15.2577 13.4355 15.4636 13.9155L15.8502 14.8181C15.8742 14.8744 15.8536 14.9194 15.8393 14.9415C15.8247 14.9633 15.7913 15 15.7302 15H8.26322C8.2021 15 8.16872 14.9633 8.1541 14.9415C8.13985 14.9194 8.11922 14.8744 8.14322 14.8181Z" fill="#414141"/>
<path d="M16.091 20.4001C14.447 20.5512 13.0708 20.6277 12.0001 20.6277C10.9295 20.6277 9.55325 20.5512 7.90925 20.4001C7.70263 20.3813 7.52038 20.5332 7.50163 20.7391C7.4825 20.9453 7.63438 21.1279 7.84063 21.1467C9.50713 21.3001 10.9066 21.3777 12.0001 21.3777C13.0936 21.3777 14.4931 21.3001 16.1593 21.1467C16.3655 21.1279 16.5174 20.9453 16.4983 20.7391C16.4795 20.5332 16.2965 20.3809 16.091 20.4001Z" fill="#414141"/>
<path d="M13.6098 16.875H10.3956C10.045 16.875 9.72589 17.0531 9.54139 17.3513C9.35727 17.6494 9.34077 18.0146 9.49752 18.3281C9.74314 18.8197 10.237 19.125 10.7868 19.125H13.2183C13.7676 19.125 14.2619 18.8197 14.5075 18.3281C14.6643 18.0146 14.6478 17.6494 14.4636 17.3513C14.2795 17.0531 13.96 16.875 13.6098 16.875ZM13.837 17.9925C13.7189 18.2284 13.4819 18.375 13.2183 18.375H10.7868C10.5231 18.375 10.2861 18.2284 10.1684 17.9925C10.1114 17.8781 10.1571 17.7817 10.1796 17.7454C10.2018 17.7094 10.2678 17.625 10.3953 17.625H13.6094C13.7373 17.625 13.8033 17.7094 13.8254 17.7454C13.8483 17.7817 13.894 17.8785 13.837 17.9925Z" fill="#414141"/>
<path d="M22.8754 0H1.1254C0.505153 0 0.000403478 0.50475 0.000403478 1.125V4.875C0.000403478 5.49525 0.505153 6 1.1254 6H3.0004V6.47213C2.70453 6.61613 2.32465 6.975 2.24628 7.87687C1.46403 7.97737 0.405028 8.41463 0.340903 9.591C0.0649035 10.0511 -0.213347 10.9058 0.256903 11.5894C0.0124035 12.0773 -0.169847 12.8449 0.274903 13.4636C0.0862785 13.9391 -0.241472 15.0439 0.289153 16.0091C0.105403 16.4494 -0.248972 17.523 0.284278 18.2734C0.103153 18.7946 -0.248597 20.0584 0.276028 20.8444C0.0746535 21.3386 -0.289096 22.5128 0.424529 23.2448C0.664904 23.5777 1.17153 24.0026 1.82665 24.0026C2.08878 24.0026 2.3749 23.9347 2.67715 23.7656C3.00603 23.8189 3.76428 23.8744 4.32265 23.469C4.66015 23.796 5.11878 24 5.6254 24C6.65928 24 7.5004 23.1589 7.5004 22.125V22.0924L9.75378 22.2971C10.4993 22.365 11.2497 22.3988 12.0004 22.3988C12.7508 22.3988 13.5019 22.365 14.247 22.2971L16.5004 22.0924V22.125C16.5004 23.1589 17.3415 24 18.3754 24C18.882 24 19.3407 23.796 19.6785 23.4686C20.2365 23.874 20.9948 23.8181 21.3237 23.7653C21.6259 23.9344 21.9117 24.0022 22.1742 24.0022C22.8293 24.0022 23.3359 23.5778 23.5763 23.2444C24.2899 22.512 23.9262 21.3382 23.7248 20.844C24.2494 20.058 23.8977 18.7939 23.7165 18.273C24.2498 17.523 23.8958 16.449 23.7117 16.0087C24.2427 15.0435 23.9145 13.9388 23.7259 13.4633C24.171 12.8445 23.9884 12.0769 23.7439 11.589C24.2138 10.9054 23.9359 10.0504 23.6599 9.59063C23.5958 8.41425 22.5368 7.977 21.7545 7.8765C21.6762 6.975 21.2963 6.61575 21.0004 6.47213V6H22.8754C23.4957 6 24.0004 5.49525 24.0004 4.875V1.125C24.0004 0.50475 23.4957 0 22.8754 0ZM6.3754 6V7.71937C6.2689 7.77375 6.15378 7.86112 6.04465 7.99012C5.89653 7.94812 5.74953 7.91812 5.61153 7.90012C5.5354 6.9975 5.1679 6.63075 4.8754 6.48038V6H6.3754ZM15.7504 6V7.72162C15.4579 7.872 15.0904 8.23875 15.0147 9.14138C14.238 9.24413 13.1884 9.6885 13.1284 10.8825C13.0819 10.9639 13.0167 11.0936 12.9563 11.2504H11.0453C10.9845 11.0936 10.9197 10.9639 10.8732 10.8825C10.8128 9.68888 9.76353 9.2445 8.9869 9.14138C8.9104 8.23875 8.5429 7.872 8.2504 7.72162V6H15.7504ZM19.1254 6V6.48038C18.8329 6.63075 18.4654 6.9975 18.3897 7.90012C18.2517 7.9185 18.1047 7.9485 17.9565 7.9905C17.8474 7.8615 17.7323 7.77413 17.6254 7.71975V6H19.1254ZM16.5004 6H16.8754V7.617H16.5004V6ZM7.62265 11.7694C7.60728 11.7341 7.59153 11.6966 7.57653 11.6663C8.0464 10.9736 7.77078 10.104 7.4974 9.63825C7.46703 9.04688 7.1929 8.64 6.83028 8.367H7.86003C7.99803 8.39138 8.2504 8.65312 8.2504 9.49125C8.2504 9.69825 8.4184 9.86625 8.6254 9.86625C8.68653 9.86625 10.1254 9.879 10.1254 10.9913C10.1254 11.0644 10.1475 11.1371 10.1877 11.1982C10.188 11.199 10.2004 11.2192 10.2184 11.25H9.01353C8.49265 11.25 8.00215 11.4412 7.62265 11.7694ZM7.5004 7.617H7.1254V6H7.5004V7.617ZM3.7504 6H4.1254V6.375H3.7504V6ZM2.69628 23.0059C2.5954 22.9819 2.48928 22.9991 2.40228 23.0557C1.62303 23.5627 1.1149 22.9226 1.02228 22.7906C1.0084 22.7704 0.992279 22.7512 0.974653 22.734C0.434279 22.2071 1.04065 20.9692 1.04665 20.9569C1.1209 20.8106 1.09203 20.6325 0.974653 20.5181C0.506279 20.0614 0.888779 18.7605 1.06015 18.3409C1.11753 18.1995 1.08378 18.0371 0.974653 17.9306C0.434279 17.4037 1.04065 16.1659 1.04665 16.1535C1.1089 16.0312 1.09953 15.8842 1.02228 15.771C0.402778 14.8661 1.04028 13.5821 1.04628 13.5701C1.12128 13.4239 1.0924 13.2454 0.974653 13.1306C0.454154 12.6229 0.999779 11.7952 1.02265 11.7615C1.12503 11.6111 1.10515 11.409 0.974653 11.2819C0.454529 10.7745 0.999403 9.951 1.02228 9.91725C1.06503 9.85425 1.0879 9.78075 1.0879 9.705C1.0879 8.62313 2.54553 8.60287 2.60665 8.6025C2.81365 8.6025 2.98165 8.4345 2.98165 8.2275C2.98165 7.39838 3.2419 7.1445 3.3814 7.125H4.4824C4.62003 7.14638 4.8754 7.40662 4.8754 8.25C4.8754 8.457 5.0434 8.625 5.2504 8.625C5.31153 8.625 6.7504 8.63775 6.7504 9.75C6.7504 9.82388 6.77253 9.89663 6.8134 9.95813C6.8194 9.96675 7.38678 10.8334 6.86028 11.3599C6.73465 11.4855 6.71515 11.6831 6.81265 11.832C6.8149 11.8354 7.02378 12.1612 7.0714 12.5111C7.07103 12.5119 7.07065 12.5122 7.07065 12.5126L6.78265 13.1603C6.69828 13.3496 6.7834 13.5713 6.97278 13.6553C7.16103 13.7396 7.3834 13.6541 7.46778 13.4651L7.75578 12.8175C7.97665 12.3206 8.47015 12 9.01353 12H14.9877C15.531 12 16.0245 12.3206 16.2454 12.8175L16.9932 14.4994C17.1998 14.9644 17.4698 15.3982 17.7953 15.789L18.0634 16.1108L16.7187 16.3286C16.3519 16.3879 16.0223 16.5889 15.8134 16.8802C15.618 17.1525 15.5404 17.4802 15.594 17.799C15.6589 18.2175 15.9473 18.9191 17.1495 18.9191C17.328 18.9191 17.5305 18.9011 17.8174 18.8565L19.3444 18.4939C19.3455 18.4995 19.3474 18.5044 19.3485 18.51L19.4209 18.9083C17.4803 19.149 14.2722 19.5 12.0004 19.5C9.72865 19.5 6.52053 19.149 4.58028 18.9075L4.65265 18.5093C4.65378 18.5036 4.65565 18.4984 4.65678 18.4928L6.21453 18.8617C6.47065 18.9004 6.67315 18.9184 6.85165 18.9184C8.0539 18.9184 8.34228 18.2167 8.4064 17.8027C8.46078 17.4795 8.38315 17.1518 8.18778 16.8795C7.9789 16.5881 7.6489 16.3871 7.28253 16.3279L5.93778 16.11L6.2059 15.7882C6.49803 15.4376 6.7459 15.0514 6.94278 14.64C7.0324 14.4532 6.95328 14.2294 6.76653 14.1401C6.58053 14.0509 6.3559 14.1292 6.26665 14.3164C6.0964 14.6719 5.88228 15.0056 5.6299 15.3086L4.98828 16.0789C4.96578 16.1059 4.94853 16.1359 4.92678 16.1632C4.92153 16.1707 4.9159 16.1771 4.91103 16.1846C4.50528 16.6987 4.20678 17.2875 4.02903 17.9164C4.02415 17.9295 4.01515 17.94 4.01178 17.9543C4.00878 17.9666 4.01215 17.9786 4.01065 17.9914C3.9769 18.1189 3.93865 18.2453 3.91503 18.3754L3.64428 19.8649C3.58503 20.1885 3.62815 20.5185 3.7504 20.8185V22.125C3.7504 22.3841 3.80365 22.6313 3.89928 22.8563C3.47665 23.1791 2.70378 23.0077 2.69628 23.0059ZM18.6 16.7835C18.8217 17.0888 19.0013 17.4202 19.1344 17.7724L17.6742 18.1208C17.4559 18.1537 17.289 18.1691 17.1492 18.1691C16.41 18.1691 16.359 17.8414 16.3339 17.6794C16.3129 17.5545 16.3444 17.4259 16.422 17.3175C16.5154 17.1874 16.6669 17.097 16.8375 17.0693L18.6 16.7835ZM5.40078 16.7835L7.1629 17.0689C7.3339 17.0966 7.48503 17.187 7.5784 17.3171C7.6564 17.4259 7.6879 17.5545 7.66578 17.6839C7.6414 17.8414 7.5904 18.1688 6.85128 18.1688C6.71103 18.1688 6.54453 18.1534 6.35703 18.1264L4.86603 17.772C4.99953 17.4202 5.17878 17.0884 5.40078 16.7835ZM6.7504 22.125C6.7504 22.7453 6.24565 23.25 5.6254 23.25C5.00515 23.25 4.5004 22.7453 4.5004 22.125V21.6724C4.7074 21.7871 4.93765 21.8595 5.17728 21.8812L6.7504 22.0241V22.125ZM14.1795 21.5501C12.7339 21.6817 11.2673 21.6817 9.82165 21.5501L7.13815 21.306C7.13365 21.306 7.13028 21.3034 7.12578 21.3034C7.12428 21.3034 7.12278 21.3041 7.1209 21.3045L5.24515 21.1339C4.97178 21.1091 4.72953 20.9753 4.5634 20.7566C4.39728 20.538 4.33278 20.2691 4.3819 19.9988L4.44603 19.6462C6.72528 19.9316 9.76728 20.25 12.0004 20.25C14.2335 20.25 17.2755 19.9316 19.5548 19.6462L19.6189 19.9988C19.668 20.2691 19.6035 20.538 19.4374 20.7566C19.2713 20.9753 19.029 21.1091 18.7557 21.1339L16.8799 21.3045C16.8784 21.3045 16.8769 21.3034 16.875 21.3034C16.8705 21.3034 16.8672 21.3056 16.8627 21.306L14.1795 21.5501ZM18.3754 23.25C17.7552 23.25 17.2504 22.7453 17.2504 22.125V22.0241L18.8235 21.8812C19.0632 21.8595 19.2938 21.7871 19.5004 21.6724V22.125C19.5004 22.7453 18.9957 23.25 18.3754 23.25ZM21.3942 8.6025C21.4564 8.6025 22.9129 8.61487 22.9129 9.705C22.9129 9.77962 22.9362 9.85388 22.9778 9.91575C23.001 9.95062 23.5463 10.7745 23.0262 11.2815C22.8957 11.4086 22.8758 11.6108 22.9782 11.7611C22.9842 11.7698 23.5523 12.6173 23.0262 13.1302C22.9088 13.2446 22.8799 13.4227 22.9538 13.569C22.9605 13.5817 23.598 14.8658 22.9785 15.7706C22.9009 15.8842 22.8915 16.0312 22.9545 16.1535C23.1184 16.473 23.4829 17.4847 23.0262 17.9303C22.9167 18.0371 22.8829 18.1995 22.941 18.3409C23.1128 18.7598 23.4968 20.0591 23.0262 20.5181C22.9084 20.6329 22.8792 20.8114 22.9545 20.9576C23.1184 21.2771 23.4829 22.2889 23.0262 22.7344C23.0097 22.7505 22.9932 22.77 22.98 22.7891C22.8859 22.9223 22.3774 23.5624 21.5985 23.0561C21.5119 22.9999 21.4058 22.9823 21.3045 23.0062C21.2963 23.0085 20.5257 23.184 20.1015 22.857C20.1972 22.6316 20.2504 22.3845 20.2504 22.125V20.8185C20.3727 20.5185 20.4158 20.1889 20.3569 19.8649L20.0862 18.3754C20.0625 18.2453 20.0243 18.1189 19.9905 17.9914C19.989 17.979 19.9924 17.967 19.9894 17.9543C19.986 17.9404 19.9767 17.9299 19.9722 17.9167C19.7944 17.2879 19.4959 16.6984 19.0902 16.1842C19.0857 16.1768 19.08 16.1707 19.0752 16.164C19.053 16.1366 19.0354 16.1059 19.0129 16.0789L18.3713 15.3086C18.09 14.9711 17.8568 14.5961 17.6779 14.1945L16.9313 12.5145C16.9845 12.1496 17.1863 11.8354 17.1878 11.8328C17.2872 11.6842 17.2673 11.4859 17.1409 11.3595C17.0138 11.2324 16.9425 11.085 16.9227 10.9084C16.8998 10.7025 16.7142 10.5559 16.5087 10.5769C16.3028 10.5997 16.1547 10.7854 16.1772 10.9909C16.2049 11.2406 16.2878 11.4668 16.4247 11.6666C16.41 11.697 16.3947 11.7345 16.3793 11.7694C15.9998 11.4416 15.5085 11.25 14.9873 11.25H13.7824C13.8 11.2192 13.8124 11.1997 13.8124 11.1994C13.8533 11.1379 13.8754 11.0651 13.8754 10.9913C13.8754 9.88762 15.315 9.86662 15.3754 9.86625C15.5824 9.86625 15.7504 9.69825 15.7504 9.49125C15.7504 8.65312 16.0028 8.39138 16.1408 8.367H17.1717C16.7862 8.65687 16.5004 9.09713 16.5004 9.75C16.5004 9.957 16.6684 10.125 16.8754 10.125C17.0824 10.125 17.2504 9.957 17.2504 9.75C17.2504 8.64637 18.69 8.62537 18.7504 8.625C18.9574 8.625 19.1254 8.457 19.1254 8.25C19.1254 7.40137 19.3842 7.14262 19.5004 7.125H20.6194C20.7589 7.1445 21.0192 7.39838 21.0192 8.2275C21.0192 8.4345 21.1872 8.6025 21.3942 8.6025ZM20.2504 6.375H19.8754V6H20.2504V6.375ZM23.2504 4.875C23.2504 5.08162 23.082 5.25 22.8754 5.25H1.1254C0.918778 5.25 0.750404 5.08162 0.750404 4.875V1.125C0.750404 0.918375 0.918778 0.75 1.1254 0.75H22.8754C23.082 0.75 23.2504 0.918375 23.2504 1.125V4.875Z" fill="#414141"/>
<path d="M10.5 2.625H13.5C13.707 2.625 13.875 2.457 13.875 2.25C13.875 2.043 13.707 1.875 13.5 1.875H10.5C10.293 1.875 10.125 2.043 10.125 2.25C10.125 2.457 10.293 2.625 10.5 2.625Z" fill="#414141"/>
<path d="M16.125 3.375H7.875C7.668 3.375 7.5 3.543 7.5 3.75C7.5 3.957 7.668 4.125 7.875 4.125H16.125C16.332 4.125 16.5 3.957 16.5 3.75C16.5 3.543 16.332 3.375 16.125 3.375Z" fill="#414141"/>
<path d="M2.24738 12.375C2.40338 12.378 3.75 12.4665 3.75 14.625C3.75 14.832 3.918 15 4.125 15C4.332 15 4.5 14.832 4.5 14.625C4.5 12.4665 5.84663 12.378 6.00262 12.375H6.00525H6.00638C6.21075 12.3712 6.375 12.2048 6.375 12C6.375 11.7938 6.2085 11.6265 6.00262 11.625C5.84663 11.622 4.5 11.5335 4.5 9.375C4.5 9.168 4.332 9 4.125 9C3.918 9 3.75 9.168 3.75 9.375C3.75 11.5354 2.40038 11.6224 2.25 11.625H2.2485C2.24812 11.625 2.24812 11.625 2.24775 11.625H2.24475H2.24325C2.03925 11.6288 1.875 11.7952 1.875 12C1.875 12.2062 2.0415 12.3735 2.24738 12.375ZM4.125 11.1469C4.33575 11.5481 4.611 11.8181 4.88588 12C4.61138 12.1819 4.33612 12.4519 4.125 12.8531C3.91425 12.4519 3.639 12.1819 3.36412 12C3.639 11.8181 3.91425 11.5481 4.125 11.1469Z" fill="#414141"/>
<path d="M20.625 12C20.418 12 20.25 12.168 20.25 12.375C20.25 14.5354 18.9004 14.6224 18.75 14.625H18.7485C18.7481 14.625 18.7481 14.625 18.7477 14.625H18.7448H18.7436C18.5393 14.6288 18.375 14.7952 18.375 15C18.375 15.2062 18.5415 15.3735 18.7474 15.375C18.9034 15.378 20.25 15.4665 20.25 17.625C20.25 17.832 20.418 18 20.625 18C20.832 18 21 17.832 21 17.625C21 15.4665 22.3466 15.378 22.5026 15.375H22.5052H22.5064C22.7107 15.3712 22.875 15.2048 22.875 15C22.875 14.7938 22.7085 14.6265 22.5026 14.625C22.3466 14.622 21 14.5335 21 12.375C21 12.168 20.832 12 20.625 12ZM21.3859 15C21.1114 15.1819 20.8361 15.4519 20.625 15.8531C20.4142 15.4519 20.139 15.1819 19.8641 15C20.1386 14.8181 20.4139 14.5481 20.625 14.1469C20.8358 14.5481 21.111 14.8181 21.3859 15Z" fill="#414141"/>
<path d="M3.75594 17.6281C3.96069 17.6255 4.12606 17.4586 4.12606 17.2531C4.12606 17.0476 3.96031 16.8804 3.75519 16.8781C3.65769 16.8751 2.84019 16.8099 2.84019 15.4531C2.84019 15.2461 2.67219 15.0781 2.46519 15.0781C2.25819 15.0781 2.09019 15.2461 2.09019 15.4531C2.09019 16.8133 1.26856 16.8755 1.17969 16.8781H1.17894H1.17781H1.17556H1.17481C0.970063 16.8807 0.804688 17.0476 0.804688 17.2531C0.804688 17.4586 0.970438 17.6259 1.17556 17.6281C1.27306 17.6311 2.09019 17.6964 2.09019 19.0531C2.09019 19.2601 2.25819 19.4281 2.46519 19.4281C2.67219 19.4281 2.84019 19.2601 2.84019 19.0531C2.84019 17.6964 3.65769 17.6311 3.75519 17.6281H3.75594ZM2.46519 17.6056C2.36731 17.4616 2.25706 17.3461 2.14344 17.2531C2.25706 17.1601 2.36731 17.0446 2.46519 16.9006C2.56344 17.0446 2.67369 17.1601 2.78731 17.2531C2.67369 17.3461 2.56344 17.4616 2.46519 17.6056Z" fill="#414141"/>
<path d="M19.6609 9.14844C19.6609 8.94144 19.4929 8.77344 19.2859 8.77344C19.0789 8.77344 18.9109 8.94144 18.9109 9.14844C18.9109 10.5089 18.0889 10.5708 18 10.5734H17.9993H17.9981H17.9963H17.9959C17.7904 10.5761 17.625 10.7429 17.625 10.9484C17.625 11.1539 17.7907 11.3212 17.9959 11.3234C18.0934 11.3264 18.9109 11.3917 18.9109 12.7484C18.9109 12.9554 19.0789 13.1234 19.2859 13.1234C19.4929 13.1234 19.6609 12.9554 19.6609 12.7484C19.6609 11.3917 20.4784 11.3264 20.5755 11.3234C20.7806 11.3212 20.9464 11.1539 20.9464 10.9484C20.9464 10.7414 20.7784 10.5734 20.5714 10.5734C20.5342 10.5734 19.6609 10.5573 19.6609 9.14844ZM19.2859 11.3013C19.188 11.1569 19.0774 11.0414 18.9637 10.9488C19.0774 10.8558 19.188 10.7403 19.2859 10.5959C19.3838 10.7403 19.494 10.8558 19.6076 10.9488C19.494 11.0414 19.3838 11.1569 19.2859 11.3013Z" fill="#414141"/>
</g>
<defs>
<clipPath id="clip0_1_2926">
<rect width="24" height="24" fill="white"/>
</clipPath>
</defs>
</svg>
