<svg width="24" height="24" viewBox="0 0 24 24" fill="none" xmlns="http://www.w3.org/2000/svg">
<g clip-path="url(#clip0_1_2948)">
<path d="M2.25115 23.1182H16.5925C17.4072 23.1182 18.0699 22.4551 18.0699 21.6405V17.0606C18.0699 16.704 17.7798 16.414 17.4236 16.414H16.6104V12.7718L17.2333 13.1081C17.2333 13.1081 17.2333 13.1081 17.2337 13.1085L18.7042 13.9025C18.7045 13.9025 18.7045 13.9029 18.7049 13.9032C18.7052 13.9032 18.7052 13.9032 18.7056 13.9036L21.0761 15.1841C21.1357 15.2167 21.2005 15.2325 21.265 15.2325C21.3545 15.2325 21.4433 15.202 21.5156 15.1427C21.6404 15.0405 21.6912 14.8749 21.6442 14.7206L21.3627 13.7939C21.2211 13.3293 21.2725 12.8174 21.5036 12.3899L22.8185 9.95591C23.0691 9.49134 22.8956 8.90917 22.431 8.6582L21.5403 8.17717L23.0571 5.36951C23.4356 4.66871 23.1737 3.79031 22.4725 3.41077C21.771 3.03226 20.893 3.29489 20.5138 3.99569L18.9973 6.80369L18.1066 6.32266C17.6424 6.07271 17.0602 6.24551 16.8089 6.71009L16.406 7.45614C16.3354 7.27957 16.249 7.10849 16.142 6.94563C15.6106 6.1526 14.7274 5.67946 13.7787 5.67946H11.9715V4.79523H12.8132C13.1221 4.79523 13.4012 4.6118 13.5236 4.32791L14.5457 1.95466C14.6492 1.715 14.6249 1.44174 14.4816 1.22369C14.3379 1.00529 14.0962 0.875 13.8349 0.875H5.00498C4.74372 0.875 4.50235 1.00529 4.35869 1.22369C4.21538 1.44174 4.19138 1.715 4.29458 1.95466L5.31664 4.32791C5.43904 4.6118 5.71812 4.79523 6.02704 4.79523H6.86841V5.67946H5.06258C3.50087 5.67946 2.23058 6.95146 2.23058 8.51523V16.415H1.42007C1.06349 16.415 0.773438 16.7051 0.773438 17.0616V21.6408C0.773438 22.4555 1.43652 23.1182 2.25115 23.1182ZM20.9664 4.2398C21.2101 3.7886 21.7758 3.61889 22.2281 3.863C22.6796 4.10711 22.8486 4.67283 22.6045 5.12471L21.0884 7.931L19.4509 7.04609L20.9664 4.2398ZM17.2608 6.9542C17.3773 6.73854 17.6478 6.659 17.8618 6.77489L22.1862 9.11077C22.4012 9.227 22.4814 9.49649 22.3652 9.71146L21.9596 10.4616L16.8555 7.70437L17.2608 6.9542ZM16.6114 8.1566L21.7158 10.9139L21.0507 12.1451C20.7552 12.6926 20.689 13.3481 20.8704 13.943L21.0685 14.5955L19.1753 13.5727L20.4486 11.2156C20.5158 11.0908 20.4696 10.9348 20.3444 10.8669C20.2193 10.8 20.0633 10.846 19.9957 10.9711L18.7224 13.3279L17.7037 12.7776L18.2125 11.8361C18.2797 11.7113 18.2334 11.5553 18.1083 11.4875C17.9835 11.4209 17.8275 11.4665 17.7596 11.5917L17.2512 12.5328L16.2325 11.9825L17.0475 10.4743C17.1147 10.3495 17.0684 10.1935 16.9433 10.1256C16.8181 10.0588 16.6621 10.1051 16.5946 10.2299L15.7803 11.7391L13.8874 10.7164L14.5416 10.5244C15.1385 10.3495 15.6504 9.93534 15.9466 9.38814L16.6114 8.1566ZM6.02772 4.27991C5.92384 4.27991 5.83058 4.2182 5.78944 4.12323L4.76738 1.74997C4.73207 1.66871 4.74029 1.57923 4.78898 1.50517C4.83801 1.43077 4.91687 1.38826 5.00567 1.38826H13.836C13.9251 1.38826 14.004 1.43077 14.053 1.50517C14.1017 1.57923 14.1096 1.66871 14.0746 1.74997L13.0525 4.12323C13.0114 4.2182 12.9178 4.27991 12.8142 4.27991H6.02772ZM11.4572 4.7942V5.67843H7.38338V4.7942H11.4572ZM2.74487 8.5142C2.74487 7.23431 3.78441 6.19271 5.06258 6.19271H13.7784C14.5553 6.19271 15.2787 6.58083 15.7131 7.22849C15.8886 7.49591 16.0021 7.78974 16.0566 8.1014L15.494 9.14334C15.2633 9.57089 14.8635 9.89386 14.3972 10.0307L13.4684 10.3032C13.3138 10.3481 13.2027 10.4812 13.1852 10.6413C13.1681 10.8021 13.249 10.9553 13.3913 11.0325L16.0968 12.4937V16.4136H14.8285C14.4723 16.4136 14.1822 16.7037 14.1822 17.0603V17.6215C14.1109 17.5972 14.0362 17.5814 13.957 17.5814H4.86098C4.79172 17.5814 4.72624 17.5944 4.66315 17.6133V17.0606C4.66315 16.704 4.37309 16.414 4.01652 16.414H2.74487V8.5142ZM14.1473 18.287V19.7637C14.1473 19.8425 14.0993 19.9101 14.031 19.9392C14.0115 19.9454 13.9916 19.9516 13.97 19.9516H4.87401C4.78967 19.9516 4.71595 19.8998 4.68167 19.8278C4.67412 19.8076 4.66864 19.7863 4.66864 19.7633V18.2867C4.66864 18.1811 4.75435 18.0953 4.85995 18.0953H13.9563C14.0616 18.0957 14.1473 18.1814 14.1473 18.287ZM1.28772 17.0606C1.28772 16.9876 1.34704 16.9283 1.42007 16.9283C1.45469 16.9283 4.18452 16.9313 4.01344 16.9313C4.08715 16.9313 4.14715 16.9883 4.14715 17.0582V19.7428C4.14715 19.8429 4.16772 19.9382 4.20475 20.0249C4.20544 20.027 4.20681 20.0284 4.20749 20.0304C4.31309 20.2876 4.56509 20.4693 4.85995 20.4693H4.87367H13.9563H13.97C14.2206 20.4693 14.4418 20.3417 14.5724 20.148C14.6513 20.0325 14.6976 19.8929 14.6976 19.7431V17.0585C14.6976 16.9886 14.7562 16.9317 14.8278 16.9317C14.8625 16.9317 17.595 16.9286 17.424 16.9286C17.4966 16.9286 17.556 16.9879 17.556 17.0609V21.6408C17.556 22.1719 17.124 22.6043 16.5929 22.6043H2.25115C1.72007 22.6043 1.28772 22.1719 1.28772 21.6408V17.0606Z" fill="#414141"/>
<path d="M6.16339 8.92835H12.6722C12.8141 8.92835 12.9293 8.81315 12.9293 8.67121C12.9293 8.52926 12.8141 8.41406 12.6722 8.41406H6.16339C6.02145 8.41406 5.90625 8.52926 5.90625 8.67121C5.90625 8.81315 6.02145 8.92835 6.16339 8.92835Z" fill="#414141"/>
<path d="M6.16339 11.2408H12.6722C12.8141 11.2408 12.9293 11.1256 12.9293 10.9837C12.9293 10.8418 12.8141 10.7266 12.6722 10.7266H6.16339C6.02145 10.7266 5.90625 10.8418 5.90625 10.9837C5.90625 11.1256 6.02145 11.2408 6.16339 11.2408Z" fill="#414141"/>
<path d="M6.16339 13.5533H12.6722C12.8141 13.5533 12.9293 13.4381 12.9293 13.2962C12.9293 13.1543 12.8141 13.0391 12.6722 13.0391H6.16339C6.02145 13.0391 5.90625 13.1543 5.90625 13.2962C5.90625 13.4381 6.02145 13.5533 6.16339 13.5533Z" fill="#414141"/>
<path d="M6.16339 15.8658H12.6722C12.8141 15.8658 12.9293 15.7506 12.9293 15.6087C12.9293 15.4668 12.8141 15.3516 12.6722 15.3516H6.16339C6.02145 15.3516 5.90625 15.4668 5.90625 15.6087C5.90625 15.7506 6.02145 15.8658 6.16339 15.8658Z" fill="#414141"/>
<path d="M16.9212 4.82188C16.7806 4.92679 16.9428 5.14314 17.0847 5.03377C17.4389 4.75708 17.9707 4.81159 18.259 5.18462C18.3639 5.32039 18.5769 5.16851 18.4709 5.02108C18.1829 4.64394 18.2649 4.12245 18.6218 3.84679C18.7634 3.73708 18.5957 3.52485 18.4582 3.63491C18.0811 3.92291 17.5599 3.84097 17.2839 3.48405C17.1787 3.34279 16.9623 3.50531 17.0721 3.64759C17.3477 4.00485 17.2949 4.52977 16.9212 4.82188Z" fill="#414141"/>
<path d="M15.5348 3.08898C15.4442 3.15618 15.5488 3.29538 15.6397 3.22509C15.7528 3.13664 15.8941 3.09927 16.036 3.11778C16.3237 3.15481 16.3665 3.34407 16.4505 3.35469C16.5212 3.36395 16.5777 3.28407 16.5294 3.21687C16.3446 2.97481 16.3967 2.64018 16.6261 2.46292C16.7173 2.39229 16.6093 2.25618 16.5212 2.32681C16.2788 2.51195 15.9441 2.45915 15.7672 2.23012C15.6997 2.13961 15.5608 2.24384 15.6311 2.33538C15.8084 2.56372 15.7751 2.90109 15.5348 3.08898Z" fill="#414141"/>
<path d="M21.3923 17.2451C21.5133 17.1515 21.3707 16.9643 21.25 17.061C20.9219 17.3112 20.469 17.2403 20.2293 16.93C20.1378 16.8072 19.9499 16.9488 20.0452 17.0723C20.2848 17.3829 20.2389 17.8392 19.9142 18.093C19.7918 18.1842 19.9331 18.3724 20.0565 18.2771C20.3651 18.036 20.8276 18.0844 21.0772 18.408C21.1684 18.526 21.3535 18.394 21.2613 18.2658C21.1434 18.1115 21.0912 17.9215 21.1159 17.7275C21.1406 17.5351 21.2394 17.363 21.3923 17.2451Z" fill="#414141"/>
<path d="M19.5172 15.7131C19.6067 15.6442 19.5015 15.5056 19.412 15.577C19.1696 15.7621 18.835 15.7093 18.658 15.4803C18.5905 15.3894 18.4516 15.494 18.5219 15.5852C18.6992 15.8146 18.6652 16.1516 18.4252 16.3391C18.3351 16.4063 18.4393 16.5455 18.5302 16.4752C18.6433 16.3868 18.7846 16.3494 18.9265 16.3679C19.2138 16.405 19.257 16.5942 19.341 16.6048C19.412 16.6141 19.4682 16.5339 19.4199 16.467C19.3328 16.3528 19.294 16.2126 19.3126 16.0693C19.3314 15.9274 19.4041 15.8002 19.5172 15.7131Z" fill="#414141"/>
</g>
<defs>
<clipPath id="clip0_1_2948">
<rect width="24" height="24" fill="white"/>
</clipPath>
</defs>
</svg>
