<svg width="24" height="24" viewBox="0 0 24 24" fill="none" xmlns="http://www.w3.org/2000/svg">
<mask id="mask0_1_2905" style="mask-type:luminance" maskUnits="userSpaceOnUse" x="0" y="0" width="24" height="24">
<path d="M0 0H24V24H0V0Z" fill="white"/>
</mask>
<g mask="url(#mask0_1_2905)">
<path d="M7.33337 20.25C7.03876 20.25 6 20.4739 6 20.75C6 20.8881 6.11938 21 6.26669 21H17.7333C17.8806 21 18 20.8881 18 20.75C18 20.4739 16.9613 20.25 16.6667 20.25H7.33337Z" fill="#414141"/>
<path d="M19.5078 21.0384C19.5923 20.3514 20.3041 19.6981 21.1247 19.3593L21.1255 19.359C21.5747 19.1734 22.0625 18.9718 22.5108 18.6797C22.4789 19.3764 22.3258 20.1171 21.3234 20.4424L19.5078 21.0384Z" fill="#414141"/>
<path d="M4.46649 21.0384C4.38199 20.3514 3.68326 19.6981 2.86267 19.3593C2.41324 19.1736 1.92508 18.972 1.47656 18.6797C1.50851 19.3764 1.6485 20.1171 2.65082 20.4424L4.46649 21.0384Z" fill="#414141"/>
<path fill-rule="evenodd" clip-rule="evenodd" d="M7.51005 17.25C7.5471 17.7059 7.68285 18.0901 7.85752 18.3563C8.06752 18.6763 8.2719 18.75 8.39062 18.75H15.6094C15.7281 18.75 15.9325 18.6763 16.1425 18.3563C16.3172 18.0901 16.4529 17.7059 16.49 17.25H7.51005ZM7.07812 16.5C6.89692 16.5 6.75 16.7239 6.75 17C6.75 18.3807 7.48451 19.5 8.39062 19.5H15.6094C16.5154 19.5 17.25 18.3807 17.25 17C17.25 16.7239 17.1031 16.5 16.9219 16.5H7.07812Z" fill="#414141"/>
<path fill-rule="evenodd" clip-rule="evenodd" d="M19.8566 17.9995C20.9951 18.0036 21.7587 17.9995 22.2425 17.0671C22.5004 16.5703 22.546 16.2434 22.4609 15.7904C22.418 15.5618 22.3635 15.324 22.2999 15.1546C22.2463 15.0123 22.1222 14.9747 22.0068 15.0154C20.2601 15.6325 18.6349 16.2178 18 17.5072C18.1041 17.5819 18.2667 17.6621 18.4641 17.7356C18.5342 17.7618 18.6088 17.7871 18.6867 17.8109C19.0409 17.9196 19.4642 17.9995 19.8566 17.9995ZM21.7209 15.9134C21.0531 16.1548 20.4549 16.3893 19.946 16.6673C19.6518 16.828 19.4047 16.9945 19.2021 17.1715C19.4234 17.2201 19.6514 17.2495 19.8566 17.2495H19.8593C20.4622 17.2517 20.8154 17.2447 21.0813 17.1656C21.2746 17.1082 21.426 17.0122 21.5767 16.7217C21.6838 16.5155 21.7244 16.387 21.7402 16.2904C21.7553 16.1992 21.7551 16.0957 21.7238 15.9289M21.7209 15.9134C21.7219 15.9185 21.7228 15.9238 21.7238 15.9289L21.7209 15.9134Z" fill="#414141"/>
<path fill-rule="evenodd" clip-rule="evenodd" d="M2.2762 15.9289C2.27724 15.9234 2.27828 15.9179 2.27933 15.9124L2.2762 15.9289ZM2.27933 15.9124C2.97644 16.1613 3.59246 16.3956 4.11141 16.6779C4.39052 16.8298 4.62481 16.987 4.81724 17.1547C4.58796 17.2138 4.35271 17.25 4.14321 17.25C3.53403 17.25 3.1814 17.2434 2.91549 17.1645C2.72426 17.1077 2.57437 17.0135 2.42322 16.7221C2.3162 16.5159 2.27562 16.3873 2.25972 16.2907C2.24469 16.1994 2.24489 16.0956 2.2762 15.9289M5.42575 17.7492C5.67274 17.6576 5.87676 17.5549 6 17.4664C5.38214 16.2115 3.82634 15.6624 2.13363 15.0651L1.99332 15.0155C1.87788 14.9747 1.75372 15.0123 1.70022 15.1548C1.63653 15.3241 1.58203 15.562 1.53908 15.7905C1.45401 16.2436 1.49962 16.5705 1.75748 17.0676C2.24127 18 2.99742 18 4.14321 18C4.5419 18 4.96723 17.907 5.32144 17.7862C5.35696 17.7741 5.39176 17.7618 5.42575 17.7492Z" fill="#414141"/>
<path fill-rule="evenodd" clip-rule="evenodd" d="M18.4163 7.77896C18.287 7.75451 18.146 7.73216 17.995 7.71184C17.9831 7.96571 17.9502 8.21411 17.8979 8.45524C18.034 8.47376 18.1609 8.49394 18.2772 8.51591C18.4329 8.54531 18.5488 8.61904 18.6512 8.73896C19.3521 9.69904 19.8967 10.7491 20.2328 11.8871C20.2957 12.3272 19.9484 12.7479 19.4661 12.7479H4.42615C3.99762 12.7479 3.70034 12.3885 3.75001 11.9979C3.87791 10.9919 4.67379 9.42431 5.34901 8.73859C5.45184 8.61814 5.56777 8.54516 5.72284 8.51591C6.50327 8.36839 7.76363 8.30209 9.06637 8.27224C9.02415 8.02879 9.0015 7.77866 9.00008 7.52344C7.68818 7.55471 6.40188 7.62431 5.58367 7.77896C5.33398 7.82606 5.05594 7.92664 4.77827 8.25199C4.36108 8.74099 3.65645 9.68546 3.1748 11.247H2.83288L3.07984 10.4979H2.24941C1.85833 10.4979 1.48468 10.518 1.15783 10.5942C0.823402 10.6723 0.476815 10.8234 0.214877 11.1309C-0.0700818 11.4657 -0.111238 12.0639 0.335611 12.415C0.487275 12.5341 0.654818 12.5968 0.773633 12.6324C0.90246 12.6708 1.03622 12.6954 1.15992 12.7117C1.40744 12.7443 1.67341 12.751 1.89988 12.7433L2.34461 12.7282L2.58563 11.997H2.99757C2.92702 12.3237 2.83748 12.6553 2.67184 12.8369C2.51361 13.0101 2.15916 13.1856 1.8158 13.3554C1.18919 13.6655 0.647883 13.9914 0.35893 14.6758C-0.197587 16.419 -0.0694013 19.1355 0.485506 21.0383L0.476905 21.0417C0.496 21.0902 0.511714 21.1377 0.531415 21.1972C0.543685 21.2343 0.557504 21.2761 0.574654 21.3257C0.623123 21.4727 0.674308 21.6138 0.728069 21.7479C0.728069 22.4373 0.905738 23.9973 1.8158 23.9973H5.28224C5.92097 24.0261 5.98832 22.8916 5.98832 22.4979H18.0117C18.0117 22.8916 18.0791 24.0261 18.7178 23.9973H22.1842C23.079 23.9973 23.2658 22.4891 23.2718 21.7832C23.4293 21.4948 23.5009 21.1801 23.5391 20.972L23.5339 20.9711C24.0724 19.072 24.1911 16.3986 23.6411 14.6758C23.3521 13.9914 22.7917 13.6896 22.1651 13.3795C21.9208 13.2587 21.4864 13.0101 21.3281 12.8369C21.2923 12.7975 21.1906 12.4758 21.048 11.9979H21.4136L21.6547 12.729L22.0994 12.7441C22.3258 12.7518 22.5918 12.7451 22.8394 12.7125C22.963 12.6963 23.0969 12.6717 23.2256 12.6332C23.3445 12.5976 23.512 12.5349 23.6637 12.4158C24.1105 12.0647 24.0694 11.4666 23.7844 11.1318C23.5225 10.8242 23.1759 10.6731 22.8415 10.5951C22.5146 10.5188 22.141 10.4987 21.7498 10.4987H20.9194L21.1664 11.2479H20.8042C20.427 10.2215 19.8339 9.08261 19.2218 8.25199C19.1107 8.12186 18.9996 8.02766 18.8903 7.95851C18.7262 7.85471 18.5662 7.80724 18.4163 7.77896ZM1.53681 22.4517C1.56205 22.6043 1.59655 22.7566 1.64242 22.8947C1.70415 23.0805 1.76904 23.1864 1.81355 23.2347C1.81868 23.2402 1.82291 23.2443 1.82618 23.2473H5.13826C5.14363 23.2321 5.14933 23.2147 5.15518 23.1948C5.22149 22.969 5.23832 22.672 5.23832 22.4979V22.497H1.87472C1.75126 22.497 1.63894 22.4808 1.53681 22.4517ZM18.7617 22.497V22.4979C18.7617 22.672 18.7786 22.969 18.8449 23.1948C18.8507 23.2147 18.8564 23.2321 18.8617 23.2473H22.1738C22.1771 23.2443 22.1813 23.2402 22.1864 23.2347C22.231 23.1864 22.2959 23.0805 22.3576 22.8947C22.4032 22.7576 22.4375 22.6064 22.4627 22.455C22.3594 22.4821 22.247 22.4972 22.1247 22.497H18.7617ZM22.5574 21.5147C22.4542 21.6623 22.3241 21.7473 22.1247 21.747H1.87472C1.68005 21.747 1.55822 21.653 1.44761 21.4629C1.3898 21.3636 1.34267 21.2483 1.29901 21.125C1.29376 21.1102 1.28824 21.0942 1.28249 21.0774C1.02027 20.277 0.837037 19.2558 0.774 18.2042C0.70092 16.985 0.794107 15.8025 1.06254 14.9384C1.24058 14.5409 1.55647 14.3205 2.14845 14.0276L2.15792 14.0229C2.32254 13.9415 2.5146 13.8465 2.68626 13.7481C2.84783 13.6554 3.06325 13.5205 3.22585 13.3424C3.31024 13.2499 3.35633 13.1512 3.36613 13.1302L3.36725 13.1278C3.37564 13.1101 3.38347 13.0924 3.39065 13.0753C3.65022 13.3332 4.01173 13.4979 4.42615 13.4979H19.4661C19.9192 13.4979 20.3123 13.3113 20.5879 13.0221C20.5999 13.0533 20.6151 13.0905 20.6327 13.1278L20.6339 13.1302C20.6437 13.1512 20.6899 13.2501 20.7743 13.3425C20.9298 13.5129 21.1579 13.665 21.318 13.7646C21.4991 13.8773 21.6901 13.9813 21.8323 14.0517C22.4543 14.3595 22.7654 14.5563 22.9375 14.9386C23.2059 15.8028 23.299 16.9851 23.226 18.2042C23.1522 19.4362 22.9133 20.6266 22.5758 21.4689L22.5574 21.5147ZM1.35049 11.3196L1.37672 11.3139C1.51452 11.2854 1.67167 11.2676 1.8494 11.2577C1.92567 11.2535 1.96294 11.2545 2.01425 11.2558C2.04587 11.2567 2.08284 11.2577 2.13758 11.2577L1.87441 11.9937C1.73528 11.9985 1.58255 11.9967 1.43525 11.9859C1.34894 11.9797 1.26449 11.9704 1.18573 11.9576C1.01969 11.9305 0.87867 11.8878 0.799027 11.8253C0.73715 11.7767 0.733589 11.6787 0.78588 11.6172C0.87636 11.511 0.997282 11.4328 1.15156 11.3766C1.21255 11.3543 1.2789 11.3354 1.35049 11.3196ZM22.6488 11.3204L22.6226 11.3148C22.4848 11.2863 22.3276 11.2684 22.1499 11.2585C22.0736 11.2543 22.0364 11.2553 21.9851 11.2566C21.9534 11.2575 21.9164 11.2585 21.8617 11.2585L22.1248 11.9946C22.264 11.9993 22.4167 11.9975 22.564 11.9868C22.6504 11.9805 22.7348 11.9712 22.8136 11.9584C22.9796 11.9313 23.1206 11.8887 23.2003 11.8261C23.2621 11.7775 23.2657 11.6795 23.2134 11.6181C23.1229 11.5118 23.002 11.4336 22.8477 11.3774C22.7867 11.3551 22.7204 11.3362 22.6488 11.3204Z" fill="#414141"/>
<path d="M6.375 2.25L6.88142 3.61858L8.25 4.125L6.88142 4.63142L6.375 6L5.86858 4.63142L4.5 4.125L5.86858 3.61858L6.375 2.25Z" fill="#414141"/>
<path d="M1.875 6L2.17885 6.82115L3 7.125L2.17885 7.42885L1.875 8.25L1.57115 7.42885L0.75 7.125L1.57115 6.82115L1.875 6Z" fill="#414141"/>
<path d="M2.25 1.5L2.45257 2.04743L3 2.25L2.45257 2.45257L2.25 3L2.04743 2.45257L1.5 2.25L2.04743 2.04743L2.25 1.5Z" fill="#414141"/>
<path fill-rule="evenodd" clip-rule="evenodd" d="M20.534 1.5C20.2115 1.5 19.9022 1.62811 19.6742 1.85615L17.8902 3.64016L18.3472 4.09721L17.2222 5.22221L17.25 5.25C17.3994 5.39942 17.3716 5.65739 17.2222 5.8068L16.9651 6.06393C17.1487 6.50658 17.25 6.99182 17.25 7.5C17.25 9.57105 15.5711 11.25 13.5 11.25C11.429 11.25 9.75 9.57105 9.75 7.5C9.75 5.42894 11.429 3.75 13.5 3.75C14.0083 3.75 14.4935 3.8513 14.9361 4.03492L15.1932 3.77779C15.3416 3.62938 15.5972 3.60097 15.747 3.74702L15.75 3.75L15.7778 3.77779L16.9028 2.65279L17.3598 3.10985L19.1438 1.32583C19.5125 0.957128 20.0126 0.75 20.534 0.75H20.6434C21.6688 0.75 22.5 1.58121 22.5 2.60655C22.5 2.92964 22.4157 3.24714 22.2554 3.52766L21.8809 4.18309C21.6092 4.65849 21.9524 5.25 22.5 5.25H23.625C23.8321 5.25 24 5.41789 24 5.625C24 5.83211 23.8321 6 23.625 6H22.5C21.3766 6 20.6723 4.78638 21.2297 3.81099L21.6042 3.15556C21.6997 2.98836 21.75 2.79912 21.75 2.60655C21.75 1.99542 21.2545 1.5 20.6434 1.5H20.534ZM14.3492 4.62179C14.0801 4.54254 13.7952 4.5 13.5 4.5C11.8432 4.5 10.5 5.84314 10.5 7.5C10.5 9.15683 11.8432 10.5 13.5 10.5C15.1568 10.5 16.5 9.15683 16.5 7.5C16.5 7.20475 16.4575 6.91983 16.3782 6.65079L14.4492 8.57977C13.889 9.1401 12.9806 9.1401 12.4202 8.57977C11.8599 8.01945 11.8599 7.11106 12.4202 6.55077L14.3492 4.62179ZM16.1615 5.22221L17.2865 4.09722L16.9028 3.71344L15.7774 4.83881L15.4853 4.54633L12.9506 7.0811C12.6832 7.3485 12.6832 7.78207 12.9506 8.04945C13.2179 8.31683 13.6515 8.31683 13.9189 8.04945L16.4539 5.5145L16.1615 5.22221Z" fill="#414141"/>
</g>
</svg>
