<svg width="24" height="24" viewBox="0 0 24 24" fill="none" xmlns="http://www.w3.org/2000/svg">
<path d="M17.7786 21.0001L5.94463 21.0001C5.28189 21.0001 4.74463 20.4628 4.74463 19.8C4.74463 17.8137 5.97295 16.0343 7.83027 15.3301L8.13601 15.2141C10.5364 14.304 13.1869 14.304 15.5872 15.2141L15.893 15.3301C17.7503 16.0343 18.9786 17.8137 18.9786 19.8C18.9786 20.4628 18.4414 21.0001 17.7786 21.0001Z" fill="#6D48FF" stroke="#6D48FF" stroke-linecap="square" stroke-linejoin="round"/>
<path d="M9.46864 10.0177C10.7598 11.411 12.9636 11.411 14.2548 10.0177C15.4142 8.76661 15.4142 6.83358 14.2548 5.58246C12.9636 4.18916 10.7598 4.18916 9.46864 5.58246C8.30924 6.83358 8.30924 8.76661 9.46864 10.0177Z" fill="#6D48FF" stroke="#6D48FF" stroke-width="4" stroke-linecap="round" stroke-linejoin="round"/>
</svg>
