<svg width="32" height="32" viewBox="0 0 32 32" fill="none" xmlns="http://www.w3.org/2000/svg">
<circle cx="16" cy="16" r="15.5" fill="white" stroke="#D9D9D9"/>
<path d="M23.036 25.3247L19.2175 21.5051C18.8663 21.1538 18.8663 20.5843 19.2176 20.2331C19.5689 19.8817 20.1385 19.8818 20.4898 20.2332L24.3083 24.0527C24.6595 24.404 24.6595 24.9735 24.3082 25.3247C23.9569 25.6761 23.3873 25.676 23.036 25.3247Z" fill="#C2CCDE" fill-opacity="0.25"/>
<path d="M8.67902 13.7207C9.20754 11.7482 10.7482 10.2075 12.7207 9.67902C14.6931 9.1505 16.7977 9.71443 18.2417 11.1584C19.6856 12.6023 20.2496 14.7069 19.721 16.6794C19.1925 18.6518 17.6518 20.1925 15.6794 20.721C13.7069 21.2496 11.6023 20.6856 10.1584 19.2417C8.71443 17.7977 8.1505 15.6931 8.67902 13.7207Z" fill="#C2CCDE" fill-opacity="0.25"/>
<path d="M18.2335 19.2495L19.2173 20.2333M19.2175 21.5051L23.036 25.3247C23.3873 25.676 23.9569 25.6761 24.3082 25.3247C24.6595 24.9735 24.6595 24.404 24.3083 24.0527L20.4898 20.2332C20.1385 19.8818 19.5689 19.8817 19.2176 20.2331C18.8663 20.5843 18.8663 21.1538 19.2175 21.5051ZM10.1584 19.2417C8.71443 17.7977 8.1505 15.6931 8.67902 13.7207C9.20754 11.7482 10.7482 10.2075 12.7207 9.67902C14.6931 9.1505 16.7977 9.71443 18.2417 11.1584C19.6856 12.6023 20.2496 14.7069 19.721 16.6794C19.1925 18.6518 17.6518 20.1925 15.6794 20.721C13.7069 21.2496 11.6023 20.6856 10.1584 19.2417Z" stroke="#414141" stroke-linecap="round" stroke-linejoin="round"/>
</svg>
