<svg width="24" height="24" viewBox="0 0 24 24" fill="none" xmlns="http://www.w3.org/2000/svg">
<path d="M21.6719 14.6649L20.1367 13.3524C20.2094 12.9071 20.2469 12.4524 20.2469 11.9978C20.2469 11.5431 20.2094 11.0884 20.1367 10.6431L21.6719 9.33057C21.7877 9.23144 21.8705 9.09942 21.9095 8.95205C21.9484 8.80468 21.9416 8.64895 21.8898 8.50557L21.8688 8.44463C21.4461 7.26343 20.8133 6.16845 20.0008 5.2126L19.9586 5.16338C19.86 5.04749 19.7287 4.96418 19.5818 4.92443C19.435 4.88468 19.2795 4.89036 19.1359 4.94072L17.2305 5.61807C16.5273 5.0415 15.7422 4.58682 14.8938 4.26807L14.5258 2.27588C14.498 2.12598 14.4253 1.98807 14.3173 1.88048C14.2093 1.77289 14.0711 1.70071 13.9211 1.67354L13.8578 1.66182C12.6367 1.4415 11.3523 1.4415 10.1313 1.66182L10.068 1.67354C9.91797 1.70071 9.77978 1.77289 9.67177 1.88048C9.56376 1.98807 9.49105 2.12598 9.46329 2.27588L9.09297 4.27744C8.25131 4.59627 7.46751 5.05072 6.77266 5.62275L4.85313 4.94072C4.70961 4.88996 4.55405 4.88408 4.4071 4.92385C4.26016 4.96362 4.1288 5.04716 4.03047 5.16338L3.98829 5.2126C3.17675 6.16913 2.544 7.26393 2.12032 8.44463L2.09922 8.50557C1.99375 8.79853 2.08047 9.12666 2.31719 9.33057L3.8711 10.6571C3.79844 11.0978 3.76329 11.5478 3.76329 11.9954C3.76329 12.4454 3.79844 12.8954 3.8711 13.3337L2.31719 14.6603C2.2014 14.7594 2.11853 14.8914 2.07959 15.0388C2.04066 15.1861 2.0475 15.3419 2.09922 15.4853L2.12032 15.5462C2.54454 16.7274 3.17266 17.8173 3.98829 18.7782L4.03047 18.8274C4.12904 18.9433 4.2604 19.0266 4.40726 19.0664C4.55412 19.1061 4.70957 19.1005 4.85313 19.0501L6.77266 18.3681C7.4711 18.9423 8.25157 19.397 9.09297 19.7134L9.46329 21.7149C9.49105 21.8648 9.56376 22.0027 9.67177 22.1103C9.77978 22.2179 9.91797 22.2901 10.068 22.3173L10.1313 22.329C11.3636 22.5505 12.6255 22.5505 13.8578 22.329L13.9211 22.3173C14.0711 22.2901 14.2093 22.2179 14.3173 22.1103C14.4253 22.0027 14.498 21.8648 14.5258 21.7149L14.8938 19.7228C15.7418 19.4048 16.5314 18.9487 17.2305 18.3728L19.1359 19.0501C19.2795 19.1009 19.435 19.1067 19.582 19.067C19.7289 19.0272 19.8603 18.9437 19.9586 18.8274L20.0008 18.7782C20.8164 17.8149 21.4445 16.7274 21.8688 15.5462L21.8898 15.4853C21.9953 15.197 21.9086 14.8688 21.6719 14.6649ZM18.4727 10.9196C18.5313 11.2735 18.5617 11.6368 18.5617 12.0001C18.5617 12.3634 18.5313 12.7267 18.4727 13.0806L18.318 14.0204L20.0688 15.5181C19.8033 16.1295 19.4683 16.7084 19.0703 17.2431L16.8953 16.472L16.1594 17.0767C15.5992 17.536 14.9758 17.897 14.3008 18.1501L13.4078 18.4853L12.9883 20.7587C12.3263 20.8337 11.658 20.8337 10.9961 20.7587L10.5766 18.4806L9.69063 18.1407C9.02266 17.8876 8.40157 17.5267 7.8461 17.0696L7.11016 16.4626L4.9211 17.2407C4.52266 16.704 4.18985 16.1251 3.92266 15.5157L5.69219 14.004L5.53985 13.0665C5.4836 12.7173 5.45313 12.3563 5.45313 12.0001C5.45313 11.6415 5.48126 11.2829 5.53985 10.9337L5.69219 9.99619L3.92266 8.48447C4.1875 7.87275 4.52266 7.29619 4.9211 6.75947L7.11016 7.5376L7.8461 6.93057C8.40157 6.47354 9.02266 6.1126 9.69063 5.85947L10.5789 5.52432L10.9984 3.24619C11.657 3.17119 12.3297 3.17119 12.9906 3.24619L13.4102 5.51963L14.3031 5.85478C14.9758 6.10791 15.6016 6.46885 16.1617 6.92822L16.8977 7.53291L19.0727 6.76182C19.4711 7.29853 19.8039 7.87744 20.0711 8.48682L18.3203 9.98447L18.4727 10.9196ZM11.9969 7.64072C9.71875 7.64072 7.87188 9.4876 7.87188 11.7657C7.87188 14.0438 9.71875 15.8907 11.9969 15.8907C14.275 15.8907 16.1219 14.0438 16.1219 11.7657C16.1219 9.4876 14.275 7.64072 11.9969 7.64072ZM13.8531 13.622C13.6097 13.8661 13.3203 14.0598 13.0018 14.1917C12.6832 14.3236 12.3417 14.3913 11.9969 14.3907C11.2961 14.3907 10.6375 14.1165 10.1406 13.622C9.89647 13.3785 9.70285 13.0892 9.57092 12.7706C9.43899 12.452 9.37134 12.1105 9.37188 11.7657C9.37188 11.0649 9.6461 10.4063 10.1406 9.90947C10.6375 9.4126 11.2961 9.14072 11.9969 9.14072C12.6977 9.14072 13.3563 9.4126 13.8531 9.90947C14.0973 10.1529 14.2909 10.4423 14.4228 10.7608C14.5548 11.0794 14.6224 11.4209 14.6219 11.7657C14.6219 12.4665 14.3477 13.1251 13.8531 13.622Z" fill="#C9C9C9"/>
</svg>
